Coordinates
version=1
nRows=13
nColumns=40
inDegrees=yes

Units are S.I. units (second, meters, Newtons, ...)
If the header above contains a line with 'inDegrees', this indicates whether rotational values are in degrees (yes) or radians (no).

endheader
time	pelvis_tilt	pelvis_list	pelvis_rotation	pelvis_tx	pelvis_ty	pelvis_tz	hip_flexion_r	hip_adduction_r	hip_rotation_r	knee_angle_r	knee_angle_r_beta	ankle_angle_r	subtalar_angle_r	mtp_angle_r	hip_flexion_l	hip_adduction_l	hip_rotation_l	knee_angle_l	knee_angle_l_beta	ankle_angle_l	subtalar_angle_l	mtp_angle_l	lumbar_extension	lumbar_bending	lumbar_rotation	arm_flex_r	arm_add_r	arm_rot_r	elbow_flex_r	pro_sup_r	wrist_flex_r	wrist_dev_r	arm_flex_l	arm_add_l	arm_rot_l	elbow_flex_l	pro_sup_l	wrist_flex_l	wrist_dev_l
      1.32500000	    -11.07743193	     -6.30644226	     -0.78532485	      0.13084133	      0.44186305	     -1.20239504	     94.42247483	    -46.24091477	     13.12148188	    119.88008152	      2.09230213	     37.84363987	     10.90449655	      0.00000000	    111.29477090	    -43.21211773	     32.25892474	    121.79335643	      2.12569508	     38.81172947	     19.93677622	      0.00000000	    -32.07811403	      5.51734688	      1.70875758	     44.99741703	    -15.00013256	     44.99741703	     75.00017587	     45.00000026	      0.00000000	      0.00000000	     44.99741703	    -15.00013256	     44.99741703	     75.00017587	     45.00000026	      0.00000000	      0.00000000
      1.33000000	    -10.88656187	     -6.26115994	     -0.82203216	      0.13088832	      0.44055765	     -1.20235502	     94.56983565	    -46.24273334	     13.44795278	    120.08571741	      2.09589115	     37.90806241	     11.02423093	      0.00000000	    111.29355434	    -43.23885773	     32.45711687	    121.99133538	      2.12915046	     38.85761490	     19.98137773	      0.00000000	    -32.31380850	      5.44888523	      1.74022993	     44.99748922	    -15.00012655	     44.99748922	     75.00017587	     45.00000026	      0.00000000	      0.00000000	     44.99748922	    -15.00012655	     44.99748922	     75.00017587	     45.00000026	      0.00000000	      0.00000000
      1.33500000	    -10.60003170	     -6.21077433	     -0.84114873	      0.13095292	      0.43955196	     -1.20233066	     94.57337913	    -46.27358139	     13.75231465	    120.26885215	      2.09908746	     38.00553546	     11.26441374	      0.00000000	    111.15617280	    -43.29126156	     32.60244197	    122.17354103	      2.13233055	     38.90288828	     20.00109973	      0.00000000	    -32.67292137	      5.37095256	      1.74419486	     44.99756001	    -15.00012075	     44.99756001	     75.00017586	     45.00000026	      0.00000000	      0.00000000	     44.99756001	    -15.00012075	     44.99756001	     75.00017586	     45.00000026	      0.00000000	      0.00000000
      1.34000000	    -10.51223501	     -6.13862314	     -0.90425234	      0.13100117	      0.43800610	     -1.20220669	     94.89908106	    -46.23848954	     14.14037090	    120.49013465	      2.10294957	     38.02673301	     11.28927458	      0.00000000	    111.26420809	    -43.32561093	     32.79021616	    122.37805096	      2.13589992	     38.93564134	     20.03333348	      0.00000000	    -32.76713834	      5.26041357	      1.76633785	     44.99762493	    -15.00011539	     44.99762493	     75.00017586	     45.00000026	      0.00000000	      0.00000000	     44.99762493	    -15.00011539	     44.99762493	     75.00017586	     45.00000026	      0.00000000	      0.00000000
      1.34500000	    -10.19658229	     -6.02059211	     -0.93386779	      0.13106477	      0.43713713	     -1.20210560	     94.95363654	    -46.24447572	     14.55016674	    120.66952454	      2.10608051	     38.08914138	     11.49914553	      0.00000000	    111.00188422	    -43.43108394	     32.82604853	    122.54307527	      2.13878014	     38.99119747	     20.08344835	      0.00000000	    -33.16432071	      5.09905658	      1.74971652	     44.99769177	    -15.00011002	     44.99769177	     75.00017586	     45.00000026	      0.00000000	      0.00000000	     44.99769177	    -15.00011002	     44.99769177	     75.00017586	     45.00000026	      0.00000000	      0.00000000
      1.35000000	    -10.26549411	     -6.08276176	     -0.92400866	      0.13114191	      0.43519571	     -1.20224371	     95.31797425	    -46.31620850	     14.75043365	    120.89312083	      2.10998300	     38.07221304	     11.41436605	      0.00000000	    111.41749054	    -43.25881985	     33.21598839	    122.77613486	      2.14284780	     39.00389544	     20.11760403	      0.00000000	    -33.04421088	      5.19287453	      1.74746628	     44.99775566	    -15.00010494	     44.99775566	     75.00017586	     45.00000026	      0.00000000	      0.00000000	     44.99775566	    -15.00010494	     44.99775566	     75.00017586	     45.00000026	      0.00000000	      0.00000000
      1.35500000	    -10.09447369	     -6.06261616	     -0.92364861	      0.13121008	      0.43398877	     -1.20228460	     95.42878986	    -46.36754841	     15.01892555	    121.07318952	      2.11312579	     38.13654674	     11.53977465	      0.00000000	    111.43593854	    -43.23117971	     33.40653600	    122.96026068	      2.14606140	     39.02791464	     20.12014652	      0.00000000	    -33.23998427	      5.17199806	      1.72823710	     44.99782230	    -15.00009980	     44.99782230	     75.00017586	     45.00000026	      0.00000000	      0.00000000	     44.99782230	    -15.00009980	     44.99782230	     75.00017586	     45.00000026	      0.00000000	      0.00000000
      1.36000000	     -9.94497050	     -5.99626198	     -0.97295124	      0.13125035	      0.43274068	     -1.20215515	     95.63842860	    -46.34283054	     15.36964334	    121.27263599	      2.11660679	     38.17856583	     11.61318300	      0.00000000	    111.43633655	    -43.26113479	     33.57870330	    123.12805476	      2.14898996	     39.05425502	     20.17468270	      0.00000000	    -33.41002581	      5.06793317	      1.75273495	     44.99789025	    -15.00009463	     44.99789025	     75.00017586	     45.00000026	      0.00000000	      0.00000000	     44.99789025	    -15.00009463	     44.99789025	     75.00017586	     45.00000026	      0.00000000	      0.00000000
      1.36500000	     -9.70258345	     -5.76431828	     -0.96371342	      0.13133524	      0.43181736	     -1.20200384	     95.93200995	    -46.38700587	     15.99136264	    121.46120289	      2.11989790	     38.25711993	     11.91463822	      0.00000000	    111.09845355	    -43.36255959	     33.38286318	    123.27304753	      2.15152056	     39.09969633	     20.13277158	      0.00000000	    -33.68179817	      4.83472936	      1.68012522	     44.99797952	    -15.00008847	     44.99797952	     75.00017586	     45.00000026	      0.00000000	      0.00000000	     44.99797952	    -15.00008847	     44.99797952	     75.00017586	     45.00000026	      0.00000000	      0.00000000
      1.37000000	     -9.46373349	     -5.65909578	     -1.08171499	      0.13139104	      0.43098808	     -1.20173283	     96.03322640	    -46.25799650	     16.29941777	    121.62298458	      2.12272153	     38.20632381	     11.68130395	      0.00000000	    110.95415670	    -43.56834555	     33.48901838	    123.41304316	      2.15396394	     39.13747133	     20.37293186	      0.00000000	    -33.96576305	      4.64638818	      1.72221530	     44.99801136	    -15.00008641	     44.99801136	     75.00017586	     45.00000026	      0.00000000	      0.00000000	     44.99801136	    -15.00008641	     44.99801136	     75.00017586	     45.00000026	      0.00000000	      0.00000000
      1.37500000	     -9.28112861	     -5.63604512	     -1.09588688	      0.13140706	      0.42996053	     -1.20169142	     96.10762250	    -46.26437053	     16.54816342	    121.79106807	      2.12565514	     38.26408621	     11.78023306	      0.00000000	    110.92422668	    -43.54935807	     33.68879780	    123.56340865	      2.15658832	     39.16279493	     20.44474144	      0.00000000	    -34.18473064	      4.59508922	      1.72308373	     44.99803745	    -15.00008471	     44.99803745	     75.00017586	     45.00000026	      0.00000000	      0.00000000	     44.99803745	    -15.00008471	     44.99803745	     75.00017586	     45.00000026	      0.00000000	      0.00000000
      1.38000000	     -9.10748025	     -5.62367570	     -1.11015180	      0.13145856	      0.42900811	     -1.20169310	     96.16408580	    -46.28251666	     16.75101166	    121.93800652	      2.12821970	     38.30174216	     11.76873448	      0.00000000	    110.91742936	    -43.55277312	     33.86482125	    123.71113513	      2.15916663	     39.17577433	     20.47360265	      0.00000000	    -34.40120937	      4.56088243	      1.71782318	     44.99806369	    -15.00008303	     44.99806369	     75.00017586	     45.00000026	      0.00000000	      0.00000000	     44.99806369	    -15.00008303	     44.99806369	     75.00017586	     45.00000026	      0.00000000	      0.00000000
      1.38500000	     -9.16794225	     -5.94921730	     -0.97929896	      0.13165823	      0.42739996	     -1.20235709	     96.05754352	    -46.54905718	     16.48605822	    122.05996815	      2.13034833	     38.37919742	     12.04164980	      0.00000000	    111.53476750	    -43.15197871	     34.51716760	    123.95474215	      2.16341837	     39.16600475	     20.29799824	      0.00000000	    -34.28356138	      5.01918275	      1.66148403	     44.99808211	    -15.00008187	     44.99808211	     75.00017585	     45.00000026	      0.00000000	      0.00000000	     44.99808211	    -15.00008187	     44.99808211	     75.00017585	     45.00000026	      0.00000000	      0.00000000
